<svg width="24" height="25" viewBox="0 0 24 25" fill="none" xmlns="http://www.w3.org/2000/svg">
<g clip-path="url(#clip0_230_1149)">
<path d="M23.9875 12.7242C23.9875 11.7409 23.9059 11.0234 23.7292 10.2793H12.2393V14.7173H18.9836C18.8477 15.8202 18.1134 17.4811 16.4817 18.5972L16.4588 18.7458L20.0917 21.496L20.3434 21.5205C22.6549 19.4344 23.9875 16.3649 23.9875 12.7242Z" fill="#4285F4"/>
<path d="M12.2391 24.4178C15.5433 24.4178 18.3171 23.3548 20.3432 21.5211L16.4815 18.5978C15.4481 19.3021 14.0611 19.7937 12.2391 19.7937C9.00291 19.7937 6.25622 17.7076 5.27711 14.8242L5.13359 14.8361L1.35604 17.693L1.30664 17.8271C3.31906 21.7337 7.45273 24.4178 12.2391 24.4178Z" fill="#34A853"/>
<path d="M5.27678 14.8238C5.01843 14.0797 4.86891 13.2824 4.86891 12.4586C4.86891 11.6347 5.01843 10.8375 5.26318 10.0934L5.25634 9.93494L1.43145 7.03223L1.30631 7.09039C0.476896 8.71149 0.000976562 10.5319 0.000976562 12.4586C0.000976562 14.3853 0.476896 16.2056 1.30631 17.8267L5.27678 14.8238Z" fill="#FBBC05"/>
<path d="M12.2391 5.12403C14.5371 5.12403 16.0871 6.09402 16.971 6.90461L20.4248 3.60928C18.3036 1.6826 15.5433 0.5 12.2391 0.5C7.45273 0.5 3.31906 3.18406 1.30664 7.09056L5.26351 10.0936C6.25622 7.2102 9.00291 5.12403 12.2391 5.12403Z" fill="#EB4335"/>
</g>
<defs>
<clipPath id="clip0_230_1149">
<rect width="24" height="24" fill="white" transform="translate(0 0.5)"/>
</clipPath>
</defs>
</svg>
